<svg xmlns="http://www.w3.org/2000/svg" width="1100" height="620" viewBox="0 0 1100 620">
  <rect width="100%" height="100%" fill="#F8FAFC"/>
  <text x="24" y="45" font-size="30" font-weight="800" fill="#0F172A">Most Active Open Polymarket Markets</text>
  <text x="24" y="72" font-size="15" fill="#475569">Sorted by lifetime market volume • Snapshot: 2026-06-11 08:43:18 New York</text>
  <text x="24" y="114" font-size="18" fill="#111827">1. Will Jesus Christ return before 2027?</text><rect x="360" y="90" width="670" height="34" rx="9" fill="#6D5DFB" opacity="0.92"/><text x="1042" y="114" font-size="18" fill="#111827" font-weight="700">$63.7M</text><text x="24" y="172" font-size="18" fill="#111827">2. Will Uzbekistan win the 2026 FIFA World Cup?</text><rect x="360" y="148" width="628" height="34" rx="9" fill="#22C55E" opacity="0.92"/><text x="1000" y="172" font-size="18" fill="#111827" font-weight="700">$59.7M</text><text x="24" y="230" font-size="18" fill="#111827">3. Will Congo DR win the 2026 FIFA World Cup?</text><rect x="360" y="206" width="613" height="34" rx="9" fill="#22C55E" opacity="0.92"/><text x="985" y="230" font-size="18" fill="#111827" font-weight="700">$58.3M</text><text x="24" y="288" font-size="18" fill="#111827">4. Will USA win the 2026 FIFA World Cup?</text><rect x="360" y="264" width="599" height="34" rx="9" fill="#38BDF8" opacity="0.92"/><text x="971" y="288" font-size="18" fill="#111827" font-weight="700">$56.9M</text><text x="24" y="346" font-size="18" fill="#111827">5. Will Ivory Coast win the 2026 FIFA World Cup?</text><rect x="360" y="322" width="559" height="34" rx="9" fill="#38BDF8" opacity="0.92"/><text x="931" y="346" font-size="18" fill="#111827" font-weight="700">$53.2M</text><text x="24" y="404" font-size="18" fill="#111827">6. Will Oprah Winfrey win the 2028 Democratic pres…</text><rect x="360" y="380" width="558" height="34" rx="9" fill="#38BDF8" opacity="0.92"/><text x="930" y="404" font-size="18" fill="#111827" font-weight="700">$53.0M</text><text x="24" y="462" font-size="18" fill="#111827">7. Will LeBron James win the 2028 US Presidential …</text><rect x="360" y="438" width="551" height="34" rx="9" fill="#38BDF8" opacity="0.92"/><text x="923" y="462" font-size="18" fill="#111827" font-weight="700">$52.4M</text><text x="24" y="520" font-size="18" fill="#111827">8. Will Egypt win the 2026 FIFA World Cup?</text><rect x="360" y="496" width="546" height="34" rx="9" fill="#38BDF8" opacity="0.92"/><text x="918" y="520" font-size="18" fill="#111827" font-weight="700">$51.9M</text>
  <text x="24" y="590" font-size="13" fill="#64748B">Source: Polymarket data via Scalar screenPolymarkets. Volumes shown in USD.</text>
</svg>