<svg xmlns="http://www.w3.org/2000/svg" viewBox="0 0 220 40" width="220" height="40">
  <g transform="translate(0, 2)">
    <svg viewBox="20 20 160 160" width="36" height="36">
      <path fill="#94a3b8" d="M180 102.224C180 56.813 144.183 20 100 20s-80 36.813-80 82.224h44.811L20 110.705l1.615 9.013 56.914-10.771-47.638 32.657 4.948 7.624 48.793-33.449-31.894 48.815 7.402 5.109 30.628-46.878-10.764 55.378L88.748 180 100 122.112 111.252 180l8.744-1.795-10.764-55.378 30.628 46.878 7.402-5.109-31.894-48.815 48.793 33.449 4.948-7.624-47.638-32.657 56.914 10.771 1.615-9.013-44.811-8.481H180z"/>
    </svg>
  </g>
  <text x="44" y="27" font-family="'Hanken Grotesk', 'Helvetica Neue', Arial, sans-serif" font-size="20" font-weight="600" fill="#94a3b8">Scalar Field</text>
</svg>
